<?xml version="1.0" encoding="UTF-8" standalone="no"?> <svg xmlns="http://www.w3.org/2000/svg" width="146" height="146" viewBox="0 0 146 146"><title>001-business</title><rect x="0.5" y="0.5" width="145" height="145" fill="none"/><line x1="85" y1="19" x2="85" y2="25" fill="none" stroke="#b8b9ba" stroke-linecap="round" stroke-miterlimit="10" stroke-width="2"/><line x1="88" y1="22" x2="82" y2="22" fill="none" stroke="#b8b9ba" stroke-linecap="round" stroke-miterlimit="10" stroke-width="2"/><circle cx="102.47" cy="37.84" r="2" fill="none" stroke="#b8b9ba" stroke-linecap="round" stroke-miterlimit="10" stroke-width="1.6"/><circle cx="100.87" cy="23.44" r="1.6" fill="#b8b9ba"/><path d="M23.64,80.8L26,79.57a0.08,0.08,0,0,1,.12.08l-0.44,2.59,2,1.95-2.76.4-1.24,2.5-1.24-2.5-2.6-.38a0.08,0.08,0,0,1,0-.14l1.88-1.84L21.17,79.5Z" fill="#ea9080"/><circle cx="20.33" cy="70.64" r="1.6" fill="#b8b9ba"/><circle cx="12.33" cy="80.36" r="1.6" fill="#b8b9ba"/><circle cx="83.53" cy="105.52" r="1.6" fill="#b8b9ba"/><line x1="69.8" y1="110.51" x2="73" y2="113.71" fill="none" stroke="#b8b9ba" stroke-linecap="round" stroke-miterlimit="10" stroke-width="1.6"/><line x1="73" y1="110.51" x2="69.8" y2="113.71" fill="none" stroke="#b8b9ba" stroke-linecap="round" stroke-miterlimit="10" stroke-width="1.6"/><path d="M134.14,117.15a8.53,8.53,0,0,1-2,5.41c0.07-.17.14-0.34,0.19-0.52,2.38-3.12,2.31-7.29-.15-9.67A6.47,6.47,0,0,1,134.14,117.15Z" fill="#eeb8a9"/><path d="M129,109.6l0,0-0.74.83-1.62,2.75,0.72-.85,3,2.58a6.73,6.73,0,0,1,2,7.1c-0.1.14-.21,0.27-0.32,0.41l-1.44,1.69c-2.79,3.26-7.34,3.93-10.18,1.49l-2.94-2.52,0.72-.85L126.93,112l1.32-1.54Z" fill="#ea9080"/><path d="M126.65,113.21l1.62-2.75,0.74-.83,2.9,2.5,0.26,0.24c2.46,2.38,2.53,6.55.15,9.67a6.73,6.73,0,0,0-2-7.1l-3-2.58Z" fill="#eeb8a9"/><polygon points="126.93 111.99 121.5 107.32 120.78 108.16 122.38 105.4 123.1 104.56 128.97 109.6 128.25 110.44 126.93 111.99" fill="#eeb8a9"/><polygon points="112.29 117.21 122.38 105.4 120.78 108.16 121.5 107.32 126.93 111.99 118.17 122.25 117.45 123.1 111.57 118.05 112.29 117.21" fill="#ea9080"/><path d="M106.65,90.43l16.45,14.13-0.72.85-1.32,1.54L106.59,97a2.55,2.55,0,0,0-3.26.42c-1.32,1.34-6.46,7.54-6.61,7.71l-1.6-2,1.41-1.65,1-1.22,5.76-6.74,0.7-.83h0l1.74-2A0.63,0.63,0,0,1,106.65,90.43Z" fill="#eeb8a9"/><path d="M121.06,106.94l1.32-1.54-10.09,11.81-0.72.84L95.13,103.92a0.62,0.62,0,0,1,0-.88l1.6,2c0.14-.17,5.29-6.38,6.61-7.71a2.55,2.55,0,0,1,3.26-.42Z" fill="#ea9080"/><line x1="95.13" y1="85.02" x2="104.04" y2="92.6" fill="none" stroke="#515f76" stroke-miterlimit="10" stroke-width="2.4"/><line x1="96.3" y1="101.2" x2="87.06" y2="93.34" fill="none" stroke="#515f76" stroke-miterlimit="10" stroke-width="2.4"/><path d="M129,109.6l0,0,2.9,2.5,0.26,0.24c2.46,2.38,2.53,6.55.15,9.67-0.1.14-.21,0.27-0.32,0.41l-1.44,1.69c-2.79,3.26-7.34,3.93-10.18,1.49l-2.94-2.52-5.87-5L95.13,103.92a0.62,0.62,0,0,1,0-.88l1.41-1.65,1-1.22,5.76-6.74,0.7-.83h0l1.74-2a0.63,0.63,0,0,1,.87-0.13l16.45,14.13Z" fill="none" stroke="#515f76" stroke-miterlimit="10" stroke-width="2.4"/><line x1="112.29" y1="117.21" x2="122.38" y2="105.4" fill="none" stroke="#515f76" stroke-miterlimit="10" stroke-width="2.4"/><polyline points="118.17 122.25 126.93 111.99 128.25 110.44" fill="none" stroke="#515f76" stroke-miterlimit="10" stroke-width="2.4"/><path d="M86.79,93a35.56,35.56,0,1,1,8-8.18A35.83,35.83,0,0,1,86.79,93Z" fill="#fff" stroke="#515f76" stroke-miterlimit="10" stroke-width="2.4"/><path d="M68.42,38.85a26.28,26.28,0,0,1,22.85,26,26,26,0,0,1-1.74,9.39l0,0.06A25.7,25.7,0,1,1,65.8,38.72c0.84,0,1.67,0,2.49.11Z" fill="#a8cbeb"/><path d="M60.71,70.93A6.14,6.14,0,0,0,65,74c3.12,0.61,6.07-1,6.58-3.6S70,65.17,66.87,64.55l-1.6-.32C62.15,63.62,60,61,60.55,58.42s3.46-4.21,6.58-3.6a6.26,6.26,0,0,1,4,2.57" fill="none" stroke="#515f76" stroke-linecap="round" stroke-miterlimit="10" stroke-width="2.4"/><line x1="66.05" y1="51.92" x2="66.05" y2="53.84" fill="none" stroke="#515f76" stroke-linecap="round" stroke-miterlimit="10" stroke-width="2.4"/><line x1="66.69" y1="74.96" x2="66.69" y2="76.88" fill="none" stroke="#515f76" stroke-linecap="round" stroke-miterlimit="10" stroke-width="2.4"/></svg>